<?xml version="1.0" encoding="UTF-8"?>
<svg id="_ò_x2021__xF8FF__x5F_1" data-name="ò_x2021__xF8FF__x5F_1" xmlns="http://www.w3.org/2000/svg" version="1.1" viewBox="0 0 500 500">
  <!-- Generator: Adobe Illustrator 30.1.0, SVG Export Plug-In . SVG Version: 2.1.1 Build 136)  -->
  <path d="M289.82,247.98h-15.13v-72.49c0-64.82-52.54-117.36-117.36-117.36-32.41,0-61.75,13.13-82.99,34.38-21.24,21.24-34.38,50.58-34.38,82.99v72.49h-15.13c-13.72,0-24.84,11.12-24.84,24.84v202.35c0,13.72,11.12,24.84,24.84,24.84h264.98c13.72,0,24.84-11.12,24.84-24.84v-202.35c0-13.72-11.12-24.84-24.84-24.84ZM82.34,175.49c0-41.41,33.57-74.98,74.99-74.98,20.71,0,39.45,8.39,53.02,21.96,13.57,13.57,21.96,32.31,21.96,53.02v72.49H82.34v-72.49ZM170.49,372.87v37.76c0,3.63-1.47,6.92-3.85,9.31-2.38,2.38-5.67,3.85-9.3,3.85-7.27,0-13.16-5.89-13.16-13.16v-37.76c-8.17-4.6-13.69-13.36-13.69-23.41,0-14.83,12.02-26.85,26.85-26.85s26.85,12.02,26.85,26.85c0,10.04-5.52,18.8-13.69,23.41Z"/>
</svg>