<?xml version="1.0" encoding="UTF-8"?>
<svg id="_ò_x2021__xF8FF__x5F_1" data-name="ò_x2021__xF8FF__x5F_1" xmlns="http://www.w3.org/2000/svg" version="1.1" viewBox="0 0 500 500">
  <!-- Generator: Adobe Illustrator 30.1.0, SVG Export Plug-In . SVG Version: 2.1.1 Build 136)  -->
  <g>
    <path d="M289.18,248.53H24.78c-13.69,0-24.78,11.09-24.78,24.78v201.9c0,13.69,11.1,24.78,24.78,24.78h264.4c13.69,0,24.78-11.1,24.78-24.78v-201.9c0-13.69-11.1-24.78-24.78-24.78ZM170.12,373.14v37.68c0,3.63-1.47,6.91-3.85,9.29-2.38,2.38-5.66,3.85-9.29,3.85-7.25,0-13.13-5.88-13.13-13.13v-37.68c-8.15-4.59-13.66-13.33-13.66-23.35,0-14.79,12-26.79,26.79-26.79s26.79,12,26.79,26.79c0,10.02-5.51,18.76-13.66,23.35Z"/>
    <path d="M156.99,30.92c-32.34,0-61.63,13.11-82.8,34.28-21.2,21.2-34.31,50.49-34.31,82.82v100.5h42.29v-99c0-40.99,32.34-75.5,73.32-76.3,21.26-.42,40.53,8.03,54.41,21.89,13.53,13.53,21.91,32.25,21.91,52.91v22.98c0,11.68,9.47,21.14,21.14,21.14,5.84,0,11.12-2.36,14.95-6.19,3.83-3.83,6.19-9.11,6.19-14.95v-22.98c0-64.7-52.44-117.1-117.1-117.1Z"/>
  </g>
  <g>
    <path d="M354.1,117.21c-4.9-1.91-10.42.53-12.32,5.43l-22.02,56.7c-1.9,4.9.53,10.42,5.43,12.32,1.13.44,2.3.65,3.44.65,3.82,0,7.42-2.31,8.88-6.08l22.02-56.7c1.9-4.9-.53-10.42-5.43-12.32Z"/>
    <path d="M430.41,171.71c-2.12-4.81-7.75-6.99-12.56-4.88l-66.18,29.15c-4.81,2.12-7,7.74-4.88,12.56,1.57,3.56,5.06,5.69,8.72,5.69,1.28,0,2.59-.26,3.83-.81l66.18-29.15c4.81-2.12,7-7.74,4.88-12.56Z"/>
    <path d="M415.61,253.53l-54.73-21.25c-4.9-1.91-10.42.53-12.32,5.43-1.9,4.9.53,10.42,5.43,12.32l54.73,21.26c1.13.44,2.3.65,3.44.65,3.82,0,7.42-2.31,8.88-6.08,1.9-4.9-.53-10.42-5.43-12.32Z"/>
  </g>
</svg>